<svg class="page-header__logo-image" xmlns="http://www.w3.org/2000/svg" xmlns:xlink="http://www.w3.org/1999/xlink" width="150" height="75">
  <style>
    .page-header__logo-tablet,
    .page-header__logo-desktop {
      display: none;
    }

    @media (min-width: 768px) {
      .page-header__logo-mobile {
        display: none;
      }

      .page-header__logo-tablet {
        display: inline-block;
      }
    }

    @media (min-width: 1150px) {
      .page-header__logo-mobile,
      .page-header__logo-tablet {
        display: none;
      }

      .page-header__logo-desktop {
        display: inline-block;
      }
    }
  </style>
  <g class="page-header__logo-mobile">
    <path d="M4.2,26.3c0-3.5-0.3-6.9-0.4-10.4c0-0.3,0-0.7,0-1c0,0.1,0.1,0.2,0.1,0.4c0.5,1.4,1.1,2.7,1.8,3.9c0.7,1.2,1.1,2.6,1.5,3.9
      c-0.2,0.2-0.3,0.4-0.2,0.6c0,0.2,0.1,0.2,0.2,0.3c0.5,0.5,1.5,0.2,2.1,0c0.2-0.1,0.5-0.2,0.7-0.4c0.3-0.2,0.7-0.6,0.6-1
      c0-0.1,0-0.2-0.1-0.2c0.4-1.1,0.6-2.2,0.8-3.3c0.2-1.2,0.7-2.3,1.1-3.5c0,0.5,0.1,1,0.1,1.6c0.2,2.1,0,4.3,0,6.4
      c0,0.7,0,1.4,0.2,2.1c0.1,0.3,0.3,1.5,0.2,1.6c-0.5,0.5-0.4,1.1,0.3,1.2c0.8,0.2,1.8-0.1,2.3-0.6c1-0.9,0.5-2.4,0.3-3.6
      c-0.4-2,0.1-4.2,0-6.2c-0.1-2.3-0.4-4.5-0.4-6.8c0-1.8,0.3-3.7-0.3-5.5c0-0.2,0.1-0.4,0.1-0.6c0.2-0.9-2.8-0.4-3.2,0.4
      C12,5.9,11.9,6.2,12,6.4c0,0.1,0.1,0.1,0.1,0.2c-0.6,2.7-1.3,5.3-2.2,7.9c-0.3,1-0.7,2-1.1,3c-0.5-0.9-1-1.9-1.4-2.8
      c-1.2-2.9-2.2-5.8-3.6-8.6C4,4.8,1.1,5,0.5,6.1C-0.1,7.6-0.1,9,0.2,10.5c0.3,1.7,0.3,3.4,0.3,5.1c0,3.3,0.3,6.7,0.4,10
      c-0.3,0.3-0.4,0.7-0.1,1.2c0.1,0.2,0.3,0.3,0.5,0.5C2,28,4.2,27.5,4.2,26.3z"/>
    <path d="M22.4,7.9C22.3,7.3,19,8,19.1,8.8c0.3,1.8,0.2,3.6,0.1,5.4c0,1.7,0.4,3.3,0.6,5c0.2,1.7-0.1,3.5,0.1,5.2
      c0.1,0.8,0.6,2.3,0.1,3c-0.4,0.4,1.2,0.3,1.3,0.3c0.6-0.1,1.5-0.3,1.9-0.9c0.6-0.7,0.2-2,0-2.8c-0.3-1.7-0.1-3.5-0.2-5.3
      c-0.1-1.7-0.6-3.3-0.7-4.9C22.5,11.8,22.7,9.9,22.4,7.9z"/>
    <path d="M25.5,14.6c0.9,2.5,4.6,1.3,6.6,1.5c3.2,0.2,2.3,4.6,2.3,6.6c0,1.1,1,2.9,0.2,3.8c-0.5,0.6-1.7,0.6-2.4,0.6
      c-0.7,0.1-1.9,0.3-2.3-0.4c-0.8-1.2,0.1-3.2-0.1-4.6c-0.1-0.8-3.4-0.1-3.3,0.9c0.3,2.2-1.2,5.2,2,5.6c2.1,0.2,4.4-0.1,6.3-0.8
      c1-0.3,1.9-0.8,2.7-1.5c0.9-0.8,0.6-2,0.4-3c-0.6-2.5,0.6-5.3-1-7.5c-1.7-2.3-5-0.7-7.2-1.3c-1.2-0.3-1.2-1.9-1.2-2.9
      c0-1.2-0.1-2.3-0.2-3.5c-0.1-0.9,0-1.8,0.6-2.4c0.1-0.1,0.7-0.3,0.7-0.3c0.3-0.1,0.6-0.1,0.9-0.1c1.3-0.1,3.9,0.2,3.4,2.1
      c-0.2,0.9,3,0.4,3.3-0.5c1-3.9-6.1-3.1-8.2-2.6c-1.9,0.5-3.9,1.6-4,3.7c-0.1,1,0.2,2,0.3,3C25.3,12.3,25.1,13.4,25.5,14.6z"/>
    <path d="M40,16.4c-0.1,1.8-0.2,3.6-0.2,5.4c0,0.9,0.1,1.8,0.3,2.8c0.1,0.8,0.4,2,0.2,2.8c-0.2,0.6,3,0.2,3.3-0.6
      c0.5-1.5-0.2-3.4-0.3-4.9c-0.1-1.5,0-2.9,0.1-4.4c1.7-0.1,3.4-0.2,5.1,0c0.1,1.2,0.2,2.3,0.3,3.5c0.1,1,0.2,1.9,0.2,2.9
      c0,0.9,0.1,2.1-0.2,2.9c-0.7,1.7,2.7,1.6,3.1,0.3c0.6-1.6,0.4-3.5,0.3-5.2c-0.1-2.1-0.4-4.1-0.5-6.2c-0.1-3.2-0.6-6.3-0.6-9.5
      c0-1.7-3.3-1.1-3.3,0.3c0,3,0.4,6,0.6,9.1c0,0.1,0,0.1,0,0.2c-1.6,0-3.3,0.1-4.9,0.2c0.2-3.9-0.5-7.8-0.4-11.7
      c0-0.5-3.3-0.1-3.3,0.9C39.4,8.9,40.1,12.7,40,16.4z"/>
    <path d="M54,21.8c-0.3,0.3-0.2,0.4,0,0.5c0,1.5-0.1,2.9-0.2,4.4c-0.4,0.6,0.4,1,0.9,1c0,0,0.1,0,0.1,0c0.6,0,2.2-0.3,2.3-1.1
      c0.2-1.8,0.2-3.5,0.2-5.3c1.3-1.4,2.4-3.1,3.4-4.7c0.6,1.2,1.2,2.5,1.7,3.9c0.7,2.3,1.9,4.4,2.6,6.8c0.5,1.5,3.8,0.6,3.3-0.9
      c-0.7-2.3-1.9-4.5-2.6-6.8c-0.8-2.3-2-4.4-3-6.6c0.8-1.6,1.7-3.3,2.5-5c0.7-1.5,1.2-3.2,2.6-4.3c0.5-0.4,0.5-0.8-0.2-0.8
      c-0.7-0.1-1.7,0.2-2.3,0.6c-1.2,1-2,2.2-2.7,3.6c-0.8,1.7-1.6,3.4-2.5,5.1c-0.1,0.1-0.1,0.2-0.2,0.4c-0.4,0.3-0.7,0.6-0.5,1.1
      c-0.7,1.3-1.3,2.6-2.1,3.9c-0.3-4.7-0.8-9.3-1-14c0-1.1-3.3-0.4-3.3,0.9C53.2,10.2,54,16,54,21.8C54.1,21.8,54,21.8,54,21.8z"/>
    <path d="M85.6,15.6c-0.2-0.7-1.2-0.7-1.9-0.6c0-0.3,0-0.6,0-0.8c-0.1-2.2-0.1-4.5-0.3-6.8c-0.2-2.1-1.3-2.8-3.3-2.7
      c-2,0.1-4.4,0.4-6.3,1.2c-2.2,0.9-3.4,2.5-3.8,4.8c-0.5,2.5,0.2,5.2,0.3,7.8c0.1,3,0.1,5.9,0.1,8.9c0,0.5,3.3,0,3.3-0.9
      c0-2.3,0-4.7,0-7c0-0.7,0-1.4-0.1-2.1c1.2-0.5,3.1,0,4.3,0.1c0.9,0.1,1.8-0.1,2.7-0.2c0,1.9,0.1,3.9,0.2,5.9c0,1,0.4,3-0.3,3.8
      c-0.4,0.4,1.2,0.3,1.3,0.3c0.7-0.1,1.5-0.3,1.9-0.9c0.8-0.9,0.4-3.2,0.3-4.3c-0.1-1.6-0.1-3.2-0.1-4.8
      C84.7,16.9,85.7,16.3,85.6,15.6z M78.9,15.4c-1.9,0-3.8-0.3-5.7,0c-0.1-1.1-0.2-2.1-0.3-3.2c-0.1-2,0.1-4.7,1.9-5.9
      c0.5-0.3,1.4-0.3,2-0.4c0.8-0.1,1.6-0.3,2.4,0.2c1,0.7,0.8,3.1,0.8,4.1c0,1.7,0.2,3.4,0.3,5.1C79.9,15.4,79.4,15.4,78.9,15.4z"/>
    <path d="M18.7,4.1c0,0.2,0,0.4,0.1,0.5c0,0,0,0.1,0,0.1c0,0.1,0,0.2,0,0.3c0.1,0.2,0.2,0.3,0.4,0.4c0.3,0.2,0.7,0.2,1.1,0.2
      c0.4,0,0.9-0.2,1.2-0.4c0.1-0.1,0.1-0.1,0.2-0.2c0.4-0.3,0.8-0.7,0.6-1.1C22,2.9,22,2,22,1c0-0.8-0.8-1.1-1.5-1
      c-0.6,0.1-1.8,0.5-1.8,1.3c0,0.8-0.1,1.7,0.1,2.5C18.7,3.9,18.7,4,18.7,4.1z"/>
    <path d="M80.3,33.3c-1.6-0.6-3.3-0.6-4.9-0.8c-1.6-0.2-3.2-0.4-4.9-0.6c-1.6,0.1-3.3,0-5,0.1l-4.9,0.3c-6.5,0.3-13,0.3-19.5,0.1
      c-6.5-0.1-13-0.5-19.6-0.5c-3.3,0-6.6,0.1-9.9,0.3c-1.6,0.3-3.2,0.5-4.9,0.9c-1.6,0.4-3.1,0.9-4.8,1c1.6,0.4,3.3,0.3,5,0.3
      c1.6,0,3.2,0.1,4.9,0.2c3.2-0.2,6.5-0.2,9.7-0.3c6.5,0,13,0.3,19.6,0.5c6.5,0.1,13.1,0.2,19.7-0.1l4.9-0.3c1.6-0.1,3.2-0.1,4.8-0.1
      c1.6-0.1,3.3-0.3,4.9-0.5c1.7-0.2,3.2-0.6,4.9-0.5l0.1,0l0-0.1c0-0.2,0-0.3,0-0.5C80.3,33,80.3,33.2,80.3,33.3z"/>
  </g>

  <g class="page-header__logo-tablet">
    <g class="page-header__logo-tablet--decor">
      <path d="M110.2,41.8c4.4,0.9,0.8-35.9,0.1-38.3c-2-6.6-26.7-2.1-32.2-1.7c-12.7,1-25.2-1-37.6-0.4C34.3,1.7,5.6-0.4,3,3.4
        c-5,7.2-2.7,25.8-1.3,35.1c-4,0.8,2.3,4.2,3.1,4.9c6.3,2.2,16.4-0.2,23,0.4c15.4,1.5,31.8-2.2,47.3-1c4.5,1.1,9.6,1,14.2,1.2
        C92.8,49.6,109,41.6,110.2,41.8C110.1,41.8,110.7,41.9,110.2,41.8z"/>
    </g>
    <g class="page-header__logo-tablet--text" fill="#ffffff">
      <path d="M26,24.3c-0.1-2.5-0.5-5.1-0.5-7.6c0-2.1,0.4-4.2-0.3-6.2c0-0.2,0.1-0.4,0.1-0.7c0.2-1-3.1-0.5-3.6,0.4
        c-0.3,0.3-0.5,0.6-0.4,0.9c0,0.1,0.1,0.2,0.1,0.2c-0.6,3-1.5,6-2.5,8.9c-0.4,1.1-0.8,2.2-1.2,3.4c-0.6-1-1.1-2.1-1.6-3.2
        c-1.3-3.3-2.5-6.6-4.1-9.7c0.2-1.5-3-1.3-3.7,0c-0.8,1.6-0.7,3.2-0.4,4.9c0.3,1.9,0.3,3.8,0.4,5.8c0,3.8,0.3,7.5,0.4,11.3
        c-0.3,0.4-0.4,0.8-0.1,1.3c0.2,0.2,0.3,0.4,0.5,0.5c0.9,0.7,3.3,0.1,3.3-1.2c0-3.9-0.3-7.8-0.4-11.7c0-0.4,0-0.8,0-1.1
        c0.1,0.1,0.1,0.3,0.2,0.4c0.6,1.5,1.2,3,2.1,4.4c0.8,1.4,1.2,2.9,1.7,4.4c-0.2,0.2-0.3,0.4-0.2,0.7c0,0.2,0.1,0.3,0.2,0.3
        c0.6,0.5,1.7,0.3,2.4,0c0.3-0.1,0.5-0.2,0.8-0.4s0.8-0.6,0.7-1.1c0-0.1-0.1-0.2-0.1-0.3c0.4-1.2,0.7-2.5,0.9-3.7
        c0.3-1.4,0.7-2.6,1.2-3.9c0,0.6,0.1,1.2,0.1,1.8c0.2,2.4,0,4.8,0,7.2c0,0.8,0.1,1.5,0.2,2.3c0.1,0.3,0.3,1.7,0.3,1.8
        c-0.6,0.5-0.4,1.2,0.4,1.4c0.9,0.2,2-0.1,2.6-0.7c1.1-1,0.6-2.7,0.3-4C25.5,29.1,26.1,26.6,26,24.3z"/>
      <path d="M33.9,25c-0.1-1.9-0.7-3.7-0.7-5.6c0-2.2,0.2-4.4-0.1-6.5c-0.1-0.7-3.8,0.1-3.7,1c0.3,2,0.2,4,0.2,6
        c0,1.9,0.4,3.7,0.7,5.6c0.3,2-0.1,3.9,0.1,5.9c0.1,0.9,0.7,2.6,0.1,3.4c-0.4,0.5,1.4,0.3,1.5,0.3c0.7-0.1,1.7-0.4,2.2-1
        c0.6-0.8,0.2-2.3,0.1-3.2C33.8,29,34,26.9,33.9,25z"/>
      <path d="M49.4,21.8c-2-2.6-5.6-0.7-8.1-1.5C40,19.9,40,18.1,40,17.1c0-1.4-0.1-2.6-0.3-3.9c-0.1-1,0-2,0.7-2.8
        c0.1-0.1,0.8-0.3,0.8-0.3c0.3-0.1,0.6-0.1,1-0.1c1.5-0.1,4.4,0.2,3.8,2.4c-0.3,1,3.4,0.4,3.7-0.6c1.2-4.4-6.9-3.5-9.2-2.9
        c-2.1,0.6-4.4,1.8-4.5,4.2c-0.1,1.2,0.3,2.3,0.3,3.4c0.1,1.3-0.2,2.6,0.3,3.9c1,2.8,5.2,1.5,7.4,1.7c3.6,0.3,2.6,5.2,2.6,7.5
        c0,1.2,1.1,3.3,0.2,4.3c-0.6,0.6-1.9,0.7-2.6,0.7c-0.8,0.1-2.1,0.3-2.6-0.4c-0.9-1.3,0.1-3.6-0.1-5.1c-0.1-0.9-3.9-0.1-3.7,1
        c0.3,2.5-1.3,5.8,2.3,6.3c2.3,0.3,4.9-0.2,7.1-0.9c1.1-0.4,2.2-0.9,3.1-1.7c1-0.9,0.7-2.2,0.4-3.4C49.9,27.4,51.2,24.2,49.4,21.8z
        "/>
      <path d="M65.9,21.6c-0.1-3.6-0.7-7.1-0.7-10.7c0-1.9-3.8-1.2-3.8,0.3c0,3.4,0.5,6.8,0.6,10.2c0,0.1,0,0.1,0,0.2
        c-1.8,0-3.7,0.2-5.6,0.2c0.2-4.4-0.6-8.8-0.4-13.1c0-0.6-3.7-0.1-3.7,1c-0.2,4.2,0.6,8.5,0.4,12.7c-0.1,2-0.2,4-0.2,6.1
        c0,1,0.2,2.1,0.3,3.1c0.1,0.9,0.5,2.2,0.2,3.1c-0.2,0.7,3.4,0.3,3.7-0.7c0.5-1.7-0.2-3.8-0.4-5.5c-0.2-1.6,0-3.3,0.1-5
        c1.9-0.1,3.9-0.3,5.8,0c0.1,1.3,0.2,2.6,0.3,3.9c0.1,1.1,0.2,2.2,0.2,3.3c0,1,0.1,2.4-0.2,3.3c-0.7,2,3,1.8,3.5,0.3
        c0.7-1.8,0.5-4,0.4-5.8C66.3,26.3,65.9,23.9,65.9,21.6z"/>
      <path d="M81.9,25.9c-0.9-2.6-2.3-4.9-3.4-7.4c1-1.9,1.9-3.7,2.8-5.6c0.8-1.7,1.4-3.6,2.9-4.8c0.5-0.4,0.5-0.8-0.2-0.9
        c-0.8-0.1-2,0.2-2.6,0.7c-1.4,1.1-2.3,2.4-3,4.1c-0.9,1.9-1.8,3.9-2.8,5.8c-0.1,0.1-0.1,0.3-0.2,0.4c-0.5,0.3-0.7,0.7-0.6,1.2
        c-0.8,1.5-1.5,3-2.4,4.4c-0.3-5.3-0.9-10.5-1.1-15.8c0-1.2-3.8-0.5-3.7,1c0.2,6.5,1.2,13,1.2,19.5l0,0c-0.3,0.3-0.2,0.5,0.1,0.6
        c0,1.7-0.1,3.3-0.2,5c-0.4,0.7,0.4,1.1,1,1.1h0.1c0.7,0,2.5-0.3,2.6-1.3c0.2-2,0.2-4,0.2-6c1.5-1.6,2.7-3.4,3.8-5.3
        c0.7,1.4,1.4,2.8,1.9,4.3c0.8,2.6,2.2,5,3,7.6c0.5,1.7,4.2,0.7,3.7-1C84.1,30.9,82.8,28.5,81.9,25.9z"/>
      <path d="M104.2,21.5c-0.2-0.8-1.3-0.8-2.2-0.7c0-0.3,0-0.6,0-1c-0.1-2.5-0.2-5.1-0.4-7.6c-0.2-2.3-1.5-3.2-3.8-3.1
        s-5,0.5-7.1,1.3c-2.5,1-3.9,2.8-4.3,5.4c-0.5,2.9,0.2,5.9,0.4,8.8c0.1,3.3,0.1,6.7,0.1,10c0,0.5,3.7,0,3.7-1c0-2.6,0-5.3,0-7.9
        c0-0.8,0-1.5-0.1-2.3c1.3-0.6,3.5,0,4.8,0.1c1.1,0.1,2.1-0.2,3.1-0.3c0,2.2,0.1,4.4,0.2,6.6c0,1.1,0.5,3.4-0.3,4.3
        c-0.4,0.5,1.4,0.3,1.5,0.3c0.8-0.1,1.7-0.4,2.2-1c0.9-1.1,0.4-3.6,0.4-4.9c-0.1-1.8-0.1-3.6-0.1-5.4
        C103.2,23,104.4,22.3,104.2,21.5z M90.4,21.3c-0.1-1.2-0.2-2.4-0.3-3.6c-0.2-2.2,0.1-5.3,2.2-6.6c0.6-0.4,1.6-0.3,2.2-0.4
        c0.9-0.2,1.9-0.4,2.7,0.2c1.1,0.8,0.9,3.5,0.9,4.6c0,1.9,0.2,3.8,0.3,5.7c-0.5,0.1-1.1,0.1-1.6,0.1C94.6,21.2,92.4,20.9,90.4,21.3
        z"/>
      <path d="M30.7,10.3c0.5,0,1-0.2,1.4-0.5c0.1-0.1,0.2-0.1,0.2-0.2c0.5-0.3,0.9-0.8,0.7-1.3c-0.5-1-0.4-2.1-0.4-3.2
        c0-0.9-0.9-1.2-1.7-1.1c-0.7,0.1-2.1,0.6-2.1,1.4c0,0.9-0.1,1.9,0.1,2.8c0,0.1-0.1,0.2-0.1,0.3c-0.1,0.2,0,0.4,0.1,0.6v0.1
        c0,0.1,0,0.2,0,0.3c0.1,0.2,0.2,0.4,0.4,0.5C29.8,10.3,30.3,10.3,30.7,10.3z"/>
      </g>
  </g>

  <g class="page-header__logo-desktop">
    <g class="page-header__logo-desktop--decor">
      <path d="M143.2,31.4c-1.5,1.1-3.1,1.9-4.7,2.8c0-1.7-0.1-3.5-0.6-5.1c0.1-0.3,0.1-0.7,0.1-1c0.4-3,0.7-7.1-2-9.2
        c-0.3-0.3-1.2,0-1.9,0.3c-0.2-0.2-0.3-0.3-0.5-0.4c-0.1-0.2-0.2-0.5-0.2-0.7c0-0.1-0.2-0.2-0.4-0.2c0.3-0.4,0.3-0.8-0.4-1.1
        c-0.4-0.2-0.8-0.3-1.1-0.4c-0.1-0.1-0.1-0.1-0.2-0.1c0,0,0,0,0,0c-0.9-0.3-1.9-0.5-2.9-0.7c0.1-0.3,0.4-0.8,0.6-1
        c0.1-0.2,0.3-0.3,0.4-0.4c0.1-0.1,0.1-0.1,0.2-0.2c0,0,0.1,0,0.1-0.1c0,0,0,0,0.1-0.1c0.4-0.3,0.8-0.9,0.2-1.2
        c-0.6-0.3-1.5-0.1-2,0.2c-0.9,0.7-1.6,1.4-2.1,2.4c-2-0.2-4-0.2-6.1-0.1c0.1-0.1,0.1-0.2,0.1-0.3c0.2-0.6-0.9-0.5-1.2-0.5
        c-1.6,0.2-3.1,0.4-4.7,0.6c1.4-3.8,3.1-8.6,1-12.3c-1.2-2.1-3.9-2.6-6.1-2.7c-2.4-0.1-4.9,0.5-7,1.6c-4.8,2.6-7.1,7.7-8.2,13.1
        c-0.5-0.7-2.3-0.4-2.6,0.5c-0.1,0.3-0.2,0.6-0.3,1c-0.2,0.2-0.3,0.4-0.3,0.6c0,0.1,0,0.1,0,0.2c-0.1,0-0.1,0-0.2,0
        c0-0.1,0-0.2,0.1-0.3c0.1-0.1,0.2-0.2,0.3-0.4c0.6-2.3,1.2-4.6,1.9-6.8c0.3-0.8-2.5-0.4-2.8,0.4c-0.4,1.2-0.8,2.4-1.1,3.6
        c-0.2,0.1-0.4,0.2-0.4,0.3c0,0,0,0.1,0,0.1c-0.1-0.1-0.3-0.2-0.5-0.2c0-0.3,0-0.6,0-1c0-0.4-2.8,0-2.8,0.8c0,0.5,0,1,0,1.6
        c-0.2,0.1-0.3,0.2-0.5,0.3c-0.1,0.1-0.1,0.1-0.2,0.2c-0.1,0.1-0.1,0.2-0.1,0.2c0,0,0,0.1,0,0.1c0,0,0,0-0.1,0.1
        c-0.1,0.1-0.2,0.3,0,0.5c0.2,0.2,0.5,0.2,0.7,0.2c0,0,0.1,0,0.1,0c0,0.2,0,0.3,0,0.5c-0.2,0-0.5,0-0.7,0l-0.4-0.1
        c0-0.4-0.7-0.5-1.4-0.3c0,0,0-0.1,0-0.1c-0.1-0.6-0.2-1.2-0.2-1.8c0.2-0.1,0.5-0.2,0.7-0.3c0.2-0.1,0.3-0.2,0.3-0.4
        c0-0.1,0-0.1,0-0.2c0-0.2-0.4-0.2-0.5-0.2c-0.2,0-0.4,0-0.6,0C82,12.4,82,11.1,82,9.8c0-0.8-2.8-0.3-2.8,0.8c0,1.8,0,3.6,0.2,5.3
        c-0.1,0-0.2,0-0.3,0c0-0.5,0-1,0-1.5c0-1-1.3-1.2-2.1-0.8c0.3-0.3,0.5-0.6,0.4-1c-0.4-1.4-0.8-2.8-1-4.3c-0.2-1.4-3-0.7-2.8,0.8
        c0.2,1.5,0.6,2.9,1,4.3c0.2,0.8,1.3,0.9,2.1,0.5c-0.2,0.2-0.4,0.5-0.4,0.8c0,0.2,0,0.4,0,0.6C76,15,75.8,15,75.4,15
        c-1.1,0-1.7,0.9-1.4,1.5c-0.2,0-0.3-0.1-0.5-0.1c-0.4-1.2-0.7-2.5-0.7-3.8c0-0.9-1.3-1-2.1-0.7c0-0.1,0-0.1,0-0.2
        c-0.4-0.8-0.6-1.7-0.8-2.5c-0.3-1.3-3.2-0.6-2.8,0.8c0.2,0.6,0.3,1.3,0.5,1.9c0,0,0,0-0.1,0c-0.3,0.1-0.6,0.2-0.9,0.4
        c-0.8,0.1-1.8,0.6-1.8,1.2c0.1,0.5,0.1,1,0.2,1.4C64.6,15,64,15,63.5,15.1c-0.3-0.8-0.5-1.6-0.6-2.4c-0.1-0.9-1.6-0.9-2.3-0.3
        c-0.8-2.1-1.8-4-3.1-5.8C54.8,3.2,50.3,2,46.2,2.9c-1.9,0.4-3.7,1.2-5,2.6c-1.2,1.4-1.4,3.1-1.2,4.8c0.2,1.5,0.6,4,1.6,6
        c-0.4,0-0.7,0-0.9,0.1c-0.3,0.1-0.6,0.2-0.8,0.4c-1.9,0-3.9,0-5.8-0.1c-4.2-0.2-8.3-0.9-12.5-0.7c-0.9,0-1.5,0.7-1.5,1.3
        c-1,0.5-1.7,1.3-2.1,2.3c-1.7-1.1-3.5-2.3-5.3-3.2c-0.7-0.4-3.3,0.7-2.3,1.2c1.8,0.9,3.6,2.1,5.3,3.2c0.5,0.3,1.3,0.1,1.8-0.1
        c0,0,0.1,0,0.2-0.1c-0.3,1.4-0.2,3.1,0.2,4.5c0,0.1,0.1,0.2,0.2,0.3c0,0.3,0,0.7,0,1c0,0.1,0,0.1,0,0.2c-0.4,0.2-0.7,0.5-0.8,0.8
        c-0.2,1.4-0.3,2.8-0.3,4.2c-0.3,0.2-0.5,0.5-0.5,0.8c-0.2,3.3,0,6.7,0.5,10c0.2,2.7,0.7,5.3,1.2,8c0.1,0.4,0.1,0.8,0.2,1.3
        c-0.3,1.1-0.4,2.4-0.2,3.5c-0.9,0.2-1.7,0.9-1.2,1.6c0.8,1.2,1.6,2,2.6,2.6c-0.6-0.1-1.4,0.1-1.9,0.6c-0.8,0.8-1.7,1.5-2.5,2.3
        c-0.4,0.4-0.3,0.9,0.3,1.1c0.7,0.2,1.5-0.1,2-0.5c0.8-0.8,1.7-1.5,2.5-2.3c0.2-0.2,0.3-0.5,0.2-0.7c3.2,1.7,7.2,1.3,11.1,0.9
        c-0.9,1.6-1.5,3.3-2.2,5c-0.3,0.7,2.5,0.4,2.8-0.4c0.6-1.7,1.2-3.3,2.1-4.9c3.7,0.1,7.5,0.1,11.2,0.1c0.1,0.2,0.4,0.3,0.7,0.3
        c3.3,0.3,6.5-0.1,9.7-0.7c4.8-0.2,9.6-0.5,14.4-0.8c7.5-0.2,15.1-0.3,22.6-0.3c0.1,0.1,0.2,0.2,0.3,0.3c0.3,0.3,0.6,0.3,1,0.3
        c0.1,0,0.1,0,0.2,0c0.7,0,1.4,0.1,2.1,0.1c0.2,0,0.3,0.1,0.6,0c0,0,0,0,0,0c0.8,0.1,1.6,0.1,2.3,0.2c0.2,0.2,0.5,0.3,0.8,0.4
        c3.8,0.3,7.6,0.5,11.4,0.7c0.1,0.2,0.5,0.3,0.8,0.3c7.1,0.1,15.3,2.8,21.6-1.7c0.5-0.4,0.3-0.9-0.3-1c-0.1,0-0.2,0-0.3,0
        c0,0,0,0,0,0c1.2-2.8,2.2-5.6,2.9-8.6c0.4-0.2,0.6-0.5,0.6-0.9c0-1.2,0.2-2.4,0.4-3.6c0.2-0.9,0.3-1.8,0.4-2.7
        c0.4-2.2,0.8-4.4,1-6.5c2.3-1.1,4.5-2.3,6.6-3.8C146.6,31.4,144.2,30.7,143.2,31.4z M87.8,16.4c0,0-0.1,0.1-0.1,0.1
        c0.1-0.3,0.1-0.6,0.2-0.9c0,0,0.1,0,0.1,0C88,15.8,87.9,16.1,87.8,16.4z"/>
      <path d="M63.3,12.6c0.1,0.2,0.6,0.2,0.8,0.2c0.4,0,0.8-0.1,1.1-0.2c0.4-0.2,1.1-0.6,0.8-1.1c-0.4-0.6-0.6-1.2-1-1.8
        c-0.1-0.2-0.6-0.2-0.8-0.2c-0.4,0-0.8,0.1-1.1,0.2c-0.4,0.2-1.1,0.6-0.8,1.1C62.6,11.4,62.9,12.1,63.3,12.6z"/>
      <path d="M20.7,10.9c0.2,0.6,1.1,0.6,1.6,0.5c0.5-0.1,1.4-0.6,1.2-1.3c-0.2-0.6-0.4-1.3-0.9-1.8c-0.5-0.5-1.3-0.4-1.9-0.2
        c-0.4,0.2-1.2,0.8-0.7,1.3C20.4,10,20.5,10.3,20.7,10.9z"/>
      <path d="M30.7,13.9c0.8,0,3.1-1.3,1.2-1.3C31,12.6,28.8,13.9,30.7,13.9z"/>
      <path d="M122.6,12.3c0.3,0.1,0.7,0,1.1-0.1c0.3-0.1,0.7-0.2,0.9-0.5c0.4-0.4,0.7-0.7,1-1.2c0.1-0.2,0.2-0.4,0-0.6
        c-0.2-0.2-0.5-0.2-0.8-0.3c-0.4,0-0.8,0.1-1.1,0.2c-0.3,0.1-0.6,0.3-0.8,0.6c-0.1,0.2-0.2,0.4-0.4,0.5c0,0,0,0,0,0c0,0,0,0,0,0
        c-0.1,0.1-0.1,0.1-0.2,0.2c-0.2,0.2-0.3,0.4-0.3,0.6C122.1,12.1,122.3,12.2,122.6,12.3z"/>
      <path d="M135.9,17.7c0.6-0.1,1.4-0.2,1.9-0.7c1.3-1.1,2.6-2.2,3.6-3.6c0.3-0.4-1-0.2-1.1-0.2c-0.5,0.1-1.3,0.3-1.7,0.7
        c-0.9,1.3-2.2,2.3-3.4,3.4C134.7,17.7,135.6,17.7,135.9,17.7z"/>
      <path d="M146.7,44.8c-1.6,0-3.2,0-4.9,0c-0.6,0-1.5,0.5-1.6,1.1c-0.1,0.7,0.8,0.9,1.3,0.9c1.6,0,3.2,0,4.9,0
        c0.6,0,1.5-0.5,1.6-1.1C148.1,45,147.3,44.8,146.7,44.8z"/>
      <path d="M57,60.8c-0.5,0.1-1.4,0.3-1.6,0.8c-0.5,1.3-1,2.6-1.4,3.9c-0.2,0.7,2.6,0.3,2.8-0.5c0.4-1.3,0.8-2.6,1.4-3.9
        C58.4,60.6,57.2,60.8,57,60.8z"/>
      <path d="M61.6,63.4c-0.3,0-0.7,0.1-1,0.2c-0.3,0.1-0.7,0.2-1,0.4c-0.1,0.1-0.3,0.2-0.3,0.4c0,0.1,0,0.2,0,0.3
        c0,0.1-0.1,0.2-0.1,0.3c0,0,0,0,0,0c-0.1,0.1-0.1,0.2,0,0.3c0.2,0.1,0.5,0.1,0.7,0.1c0.4,0,0.7-0.1,1.1-0.3
        c0.2-0.1,0.6-0.2,0.8-0.4c0.1-0.2,0.2-0.3,0.3-0.5c0-0.2,0-0.3,0-0.5C62.1,63.4,61.7,63.4,61.6,63.4z"/>
      <path d="M116.7,67.1c-0.4-0.7-3,0.3-2.8,0.8c0.8,1.6,1.9,3.1,2.9,4.7c0.4,0.7,3-0.4,2.8-0.8C118.6,70.2,117.5,68.7,116.7,67.1z"/>
      <path d="M120.7,64.7c-0.3-0.6-1.1-0.6-1.6-0.4c-0.4,0.1-1.5,0.6-1.2,1.2c0.4,0.8,0.8,1.6,1.2,2.3c0.3,0.6,1.1,0.6,1.6,0.4
        c0.4-0.1,1.5-0.6,1.2-1.2C121.5,66.3,121.1,65.5,120.7,64.7z"/>
      <path d="M5.7,43.1c-1.5,0.4-3,0.6-4.5,1c-0.5,0.1-1.3,0.6-1.2,1.3c0.2,0.7,1.1,0.7,1.7,0.6c1.5-0.4,3-0.6,4.5-1
        c0.5-0.1,1.3-0.7,1.2-1.3C7.1,43,6.2,43,5.7,43.1z"/>
    </g>
    <g class="page-header__logo-desktop--text" fill="#ffffff">
      <path d="M43.8,40.1c-0.1-2.7-0.5-5.4-0.5-8.1c0-2.2,0.4-4.5-0.4-6.6c0-0.2,0.1-0.5,0.1-0.7
        c0.2-1.1-3.3-0.5-3.8,0.5c-0.3,0.3-0.5,0.6-0.4,1c0,0.1,0.1,0.2,0.1,0.3c-0.7,3.2-1.6,6.4-2.6,9.5c-0.4,1.2-0.9,2.4-1.3,3.6
        c-0.6-1.1-1.2-2.2-1.7-3.4c-1.4-3.5-2.6-7-4.3-10.3c0.2-1.5-3.2-1.4-3.9,0c-0.8,1.7-0.7,3.4-0.4,5.3c0.3,2.1,0.4,4.1,0.4,6.2
        c0,4,0.4,8,0.4,12c-0.4,0.4-0.5,0.9-0.1,1.4c0.2,0.2,0.4,0.4,0.6,0.6c0.9,0.7,3.5,0.1,3.5-1.3c0-4.2-0.3-8.3-0.4-12.5
        c0-0.4,0-0.8,0-1.2c0.1,0.1,0.1,0.3,0.2,0.4c0.6,1.6,1.3,3.2,2.2,4.7c0.9,1.5,1.3,3.1,1.8,4.7c-0.2,0.2-0.3,0.5-0.2,0.7
        c0,0.2,0.1,0.3,0.3,0.4c0.6,0.6,1.9,0.3,2.5,0c0.3-0.1,0.6-0.3,0.8-0.4c0.3-0.2,0.9-0.7,0.7-1.2c0-0.1-0.1-0.2-0.1-0.3
        c0.5-1.3,0.7-2.6,1-4c0.3-1.4,0.8-2.8,1.3-4.2c0.1,0.6,0.1,1.3,0.2,1.9c0.2,2.6,0,5.1,0,7.7c0,0.9,0.1,1.6,0.2,2.5
        c0.1,0.3,0.4,1.8,0.3,1.9c-0.6,0.6-0.4,1.3,0.4,1.4c0.9,0.2,2.1-0.1,2.8-0.7c1.2-1.1,0.6-2.9,0.4-4.3
        C43.3,45.2,43.8,42.5,43.8,40.1z"/>
      <path d="M52.2,40.8c-0.1-2-0.8-3.9-0.8-5.9c0-2.3,0.2-4.6-0.2-6.9c-0.1-0.7-4.1,0.1-4,1.1c0.3,2.1,0.2,4.3,0.2,6.4
        c0,2.1,0.5,3.9,0.7,6c0.3,2.1-0.1,4.2,0.1,6.3c0.1,1,0.8,2.8,0.1,3.6c-0.4,0.5,1.5,0.3,1.6,0.3c0.8-0.1,1.8-0.4,2.3-1
        c0.7-0.8,0.2-2.4,0.1-3.4C52.1,45,52.3,42.9,52.2,40.8z"/>
      <path d="M68.7,37.4c-2.1-2.8-5.9-0.8-8.6-1.6c-1.4-0.4-1.4-2.3-1.4-3.4c0-1.4-0.1-2.8-0.3-4.2
        c-0.1-1.1,0-2.1,0.8-2.9c0.1-0.1,0.9-0.3,0.8-0.3c0.4-0.1,0.7-0.1,1.1-0.1c1.6-0.1,4.7,0.2,4.1,2.5c-0.3,1,3.6,0.4,3.9-0.6
        c1.2-4.6-7.4-3.7-9.8-3.1c-2.2,0.6-4.7,1.9-4.8,4.4c-0.1,1.2,0.3,2.4,0.3,3.6c0.1,1.4-0.2,2.8,0.3,4.2c1.1,3,5.6,1.6,7.8,1.8
        c3.9,0.3,2.7,5.5,2.8,8c0,1.3,1.2,3.5,0.2,4.5c-0.6,0.7-2,0.7-2.8,0.8c-0.8,0.1-2.2,0.3-2.8-0.5c-1-1.4,0.1-3.8-0.1-5.5
        C60,44,56,44.9,56.2,46c0.3,2.7-1.4,6.2,2.4,6.7c2.5,0.3,5.2-0.2,7.6-0.9c1.2-0.4,2.3-1,3.3-1.8c1-0.9,0.7-2.4,0.4-3.6
        C69.2,43.4,70.6,40,68.7,37.4z"/>
      <path d="M86.2,37.2c-0.1-3.8-0.7-7.6-0.7-11.4c0-2-4-1.3-4,0.3c0,3.6,0.5,7.2,0.7,10.9c0,0.1,0,0.1,0,0.2
        c-2,0-3.9,0.2-5.9,0.2c0.2-4.7-0.6-9.3-0.4-14c0-0.6-3.9-0.1-4,1.1c-0.2,4.5,0.6,9,0.5,13.5c-0.1,2.2-0.2,4.3-0.3,6.5
        c0,1.1,0.2,2.2,0.3,3.3c0.1,1,0.5,2.4,0.2,3.3c-0.2,0.8,3.6,0.3,3.9-0.7c0.5-1.8-0.2-4.1-0.4-5.9c-0.2-1.7,0-3.5,0.1-5.3
        c2-0.1,4.1-0.3,6.1,0c0.1,1.4,0.2,2.8,0.3,4.2c0.1,1.2,0.2,2.3,0.2,3.5c0,1,0.1,2.5-0.2,3.5c-0.8,2.1,3.2,1.9,3.8,0.4
        c0.7-1.9,0.5-4.2,0.4-6.2C86.6,42.2,86.2,39.7,86.2,37.2z"/>
      <path d="M103.2,41.8c-0.9-2.8-2.4-5.2-3.6-7.9c1-2,2-3.9,3-5.9c0.8-1.8,1.5-3.9,3.1-5.1c0.6-0.5,0.6-0.9-0.3-1
        c-0.9-0.1-2.1,0.2-2.8,0.7c-1.5,1.2-2.4,2.6-3.2,4.3C98.4,29,97.5,31,96.4,33c-0.1,0.1-0.2,0.3-0.2,0.4c-0.5,0.3-0.8,0.8-0.6,1.3
        c-0.8,1.6-1.6,3.1-2.5,4.7c-0.3-5.6-1-11.2-1.2-16.8c0-1.3-4-0.5-4,1.1c0.2,6.9,1.2,13.8,1.3,20.8c0,0,0,0,0,0.1
        c-0.3,0.3-0.2,0.5,0.1,0.6c0,1.8-0.1,3.5-0.2,5.3c-0.5,0.8,0.5,1.1,1.1,1.1c0,0,0.1,0,0.1,0c0.7,0,2.6-0.4,2.7-1.4
        c0.2-2.1,0.3-4.2,0.2-6.3c1.6-1.7,2.9-3.7,4.1-5.7c0.8,1.5,1.5,3,2,4.6c0.9,2.8,2.3,5.3,3.2,8.1c0.5,1.8,4.5,0.7,4-1.1
        C105.6,47.1,104.2,44.5,103.2,41.8z"/>
      <path d="M127,37.1c-0.2-0.8-1.4-0.9-2.3-0.8c0-0.3,0-0.7,0-1c-0.1-2.7-0.2-5.4-0.4-8.1c-0.2-2.5-1.6-3.4-4-3.3
        c-2.4,0.1-5.3,0.5-7.6,1.4c-2.6,1-4.1,3-4.6,5.7c-0.6,3,0.2,6.3,0.4,9.3c0.2,3.5,0.1,7.1,0.1,10.6c0,0.6,4,0,4-1.1
        c0-2.8,0-5.6,0-8.4c0-0.8-0.1-1.6-0.1-2.5c1.4-0.6,3.7,0,5.1,0.1c1.1,0.1,2.2-0.2,3.3-0.3c0,2.3,0.1,4.7,0.2,7
        c0,1.2,0.5,3.6-0.4,4.6c-0.4,0.5,1.5,0.3,1.6,0.3c0.8-0.1,1.8-0.4,2.3-1.1c1-1.1,0.5-3.8,0.4-5.2c-0.1-1.9-0.1-3.9-0.1-5.8
        C125.9,38.7,127.2,37.9,127,37.1z M112.2,36.9c-0.1-1.3-0.2-2.5-0.3-3.8c-0.2-2.4,0.1-5.6,2.3-7.1c0.6-0.4,1.7-0.3,2.4-0.4
        c1-0.2,2-0.4,2.9,0.2c1.2,0.8,0.9,3.7,0.9,4.9c0,2,0.2,4,0.3,6.1c-0.6,0.1-1.1,0.1-1.7,0.1C116.7,36.8,114.4,36.5,112.2,36.9z"/>
      <path d="M48.8,25.2c0.5-0.1,1.1-0.2,1.5-0.5c0.1-0.1,0.2-0.1,0.3-0.2c0.5-0.3,1-0.8,0.7-1.4
        c-0.5-1.1-0.4-2.3-0.4-3.4c0-1-1-1.3-1.8-1.2c-0.7,0.1-2.2,0.6-2.2,1.5c0,1-0.1,2,0.1,3c0,0.1-0.1,0.2-0.1,0.4
        c-0.1,0.2,0,0.4,0.1,0.6c0,0,0,0.1,0,0.1c0,0.1,0,0.2,0,0.3c0.1,0.2,0.2,0.4,0.4,0.5C47.8,25.2,48.3,25.2,48.8,25.2z"/>
    </g>
  </g>
</svg>
